Coordinates
version=1
nRows=14
nColumns=33
inDegrees=yes

Units are S.I. units (second, meters, Newtons, ...)
Angles are in degrees.

endheader
time	ground_thorax_rot_x	ground_thorax_rot_y	ground_thorax_rot_z	ground_thorax_tx	ground_thorax_ty	ground_thorax_tz	clav_prot_r	clav_elev_r	scapula_abduction_r	scapula_elevation_r	scapula_upward_rot_r	scapula_winging_r	shoulder_elv_r	plane_of_elev_r	axial_rot_r	elbow_flexion_r	pro_sup_r	wrist_flex_r	wrist_dev_r	clav_prot_l	clav_elev_l	scapula_abduction_l	scapula_elevation_l	scapula_upward_rot_l	scapula_winging_l	shoulder_elv_l	plane_of_elev_l	axial_rot_l	elbow_flexion_l	pro_sup_l	wrist_flex_l	wrist_dev_l
      2.30000000	     20.23448497	     48.76751498	      1.50083969	      0.02594672	      1.02355855	     -0.05692645	    -31.45922855	     15.00182482	    -25.24402418	      7.79721748	     45.00000000	    -18.48036525	     87.00529015	    -66.88228290	    106.66339511	     81.83421036	    -31.91277002	     19.48768009	     -1.61782130	     24.63553678	    -25.55900813	    -45.00000000	      1.18306954	    -36.95683706	     12.57448270	     51.70153150	     19.47466913	    -11.02098474	     38.10811298	     14.59601589	     37.61360432	     -7.39961731
      2.31000000	     20.36160566	     48.83950720	      1.54313452	      0.02608393	      1.02242872	     -0.05723384	    -31.19989307	     15.92363043	    -25.36400591	      8.53868424	     45.00000000	    -18.41260223	     82.35723775	    -67.02741304	    101.99494318	     80.77178527	    -34.21262545	     18.42243272	     -0.87018518	     24.60603723	    -26.06537622	    -45.00000000	      1.11179113	    -38.28937672	     12.26347799	     52.47883848	     21.25947859	    -10.04147203	     36.23874706	     15.13870933	     38.41017747	     -7.36964506
      2.32000000	     20.10332823	     48.81228397	      1.72226806	      0.02649768	      1.02306685	     -0.05753777	    -31.05486003	     15.32373666	    -24.78139968	      8.08745923	     45.00000000	    -18.28697903	     81.60317062	    -67.06910953	    101.05838172	     79.96286602	    -34.47156689	     18.08959882	     -0.90261924	     24.71252237	    -26.66027173	    -45.00000000	      1.59922663	    -38.27157379	     11.89854091	     52.51348290	     21.34587403	     -9.05738899	     34.70168191	     15.36032021	     38.02752921	     -7.11290619
      2.33000000	     20.43426649	     48.93654841	      1.55976211	      0.02671068	      1.02203883	     -0.05787283	    -30.83360746	     16.03399329	    -24.84224878	      8.66247082	     45.00000000	    -18.21915715	     77.84130117	    -67.03292665	     96.91688800	     78.98547747	    -35.90317670	     16.89457779	     -0.14098402	     24.72776975	    -27.26653244	    -45.00000000	      1.74526890	    -39.22809125	     11.51992301	     53.01039148	     22.89836674	     -7.91982084	     32.61754771	     15.76262482	     38.74134853	     -6.96368235
      2.34000000	     20.12689390	     48.97312383	      1.70304656	      0.02713850	      1.02286141	     -0.05833437	    -30.70525039	     15.33949466	    -24.22693067	      8.13433838	     45.00000000	    -18.10054423	     76.94810526	    -67.07733850	     95.98868689	     77.85618635	    -36.16556536	     16.50479757	     -0.19996528	     24.83787795	    -27.83153618	    -45.00000000	      2.22811406	    -39.16656157	     11.15426041	     53.07468135	     22.94199418	     -6.87051288	     31.14500437	     15.94734464	     38.23607861	     -6.72073061
      2.35000000	     20.52217757	     49.02388476	      1.50436438	      0.02732718	      1.02166626	     -0.05847351	    -30.44530146	     16.20535854	    -24.31614219	      8.83522658	     45.00000000	    -18.02174393	     72.62967446	    -66.88810287	     91.33680040	     76.74338597	    -37.57003222	     15.42999097	      0.54236640	     24.84724416	    -28.48147983	    -45.00000000	      2.37483809	    -40.22508209	     10.73779787	     53.77193928	     24.51588167	     -5.52222278	     28.93233887	     16.30158865	     38.74648632	     -6.47131281
      2.36000000	     20.12537403	     48.97712233	      1.74340383	      0.02760934	      1.02254895	     -0.05878361	    -30.30473368	     15.52100316	    -23.68417544	      8.31622921	     45.00000000	    -17.90473840	     71.33102360	    -66.82594560	     90.17924574	     75.44030266	    -37.84958053	     15.04000044	      0.50307117	     24.95559298	    -29.03104360	    -45.00000000	      2.83232401	    -40.20358244	     10.37174847	     53.98523347	     24.50382059	     -4.33323186	     27.39597889	     16.46441010	     38.22330717	     -6.25832779
      2.37000000	     20.23473677	     49.08118207	      1.54340855	      0.02796883	      1.02256349	     -0.05916319	    -30.23533797	     15.39649816	    -23.49715317	      8.22482869	     45.00000000	    -17.85886402	     69.05124837	    -66.51719215	     87.65789099	     74.18111747	    -38.57198024	     14.22541545	      1.09522076	     25.05778367	    -29.67787666	    -45.00000000	      3.28807393	    -40.41660264	      9.93418076	     54.22686934	     25.22497727	     -2.77531521	     25.23073204	     16.56015000	     38.07389559	     -5.96251671
      2.38000000	     20.04869593	     49.08272706	      1.69404221	      0.02810281	      1.02253896	     -0.05925644	    -30.01522663	     15.62955820	    -23.27480268	      8.43022754	     45.00000000	    -17.76186920	     65.22764424	    -66.28003050	     84.07380007	     72.42739967	    -39.60351122	     13.57039882	      1.42272103	     25.10058378	    -30.34654738	    -45.00000000	      3.55314740	    -41.20024107	      9.47902535	     55.21635017	     25.91668018	     -1.17602646	     23.40853178	     16.66704964	     37.79013861	     -5.68226657
      2.39000000	     20.30039760	     49.13421052	      1.89777173	      0.02822092	      1.02108889	     -0.05922426	    -29.45520891	     16.97680186	    -23.16759258	      9.53863059	     45.00000000	    -17.54183742	     60.14764588	    -66.13738330	     79.14915702	     70.61165878	    -40.77290951	     13.09093678	      1.65037840	     25.02476061	    -31.05427806	    -45.00000000	      3.51466967	    -42.91645578	      9.00658196	     56.69515323	     27.31617603	     -0.09716413	     21.68247579	     16.96193578	     38.07964181	     -5.22527833
      2.40000000	     19.95095744	     49.43050070	      2.06958230	      0.02874458	      1.02184302	     -0.05975694	    -29.50497181	     16.26819313	    -22.81408235	      8.97873596	     45.00000000	    -17.53895376	     59.42169356	    -66.02732070	     78.59348134	     69.14650275	    -40.93864563	     12.62060136	      1.66671632	     25.16324201	    -31.59750640	    -45.00000000	      4.03342358	    -42.72917481	      8.61132763	     56.88588992	     27.15122970	      0.44250984	     20.21386663	     17.12056876	     37.63702011	     -4.91399184
      2.41000000	     20.38689121	     49.38255171	      1.77620078	      0.02893351	      1.02101961	     -0.05984300	    -29.17084488	     17.09927388	    -22.77220000	      9.66362945	     45.00000000	    -17.40214412	     55.09064634	    -65.24300673	     74.42138547	     67.22146040	    -42.26579072	     12.23524933	      2.45587767	     25.18260943	    -32.37409469	    -45.00000000	      4.29768353	    -43.78093288	      8.06773653	     58.07188954	     28.26622329	      2.31512068	     18.08576320	     16.83636887	     37.19196933	     -4.36148022
      2.42000000	     20.03652190	     49.31811486	      1.96457184	      0.02909589	      1.02095710	     -0.05997071	    -28.83148553	     17.23744742	    -22.29382992	      9.80656998	     45.00000000	    -17.23721362	     51.35920490	    -64.91048604	     71.27091527	     65.05781643	    -43.14486731	     12.00308249	      2.54209639	     25.16000485	    -32.83493337	    -45.00000000	      4.38115436	    -44.60992742	      7.74155487	     59.34075964	     28.89325510	      3.62389943	     16.51603839	     16.60973998	     36.81103866	     -3.86024472
      2.43000000	     19.88603653	     49.51747125	      2.15591373	      0.02953542	      1.02136533	     -0.06065501	    -28.73095367	     16.81653756	    -21.86180982	      9.48588191	     45.00000000	    -17.17989795	     50.80711333	    -64.65088301	     71.12778520	     63.63526831	    -43.24373487	     11.45465067	      2.43741307	     25.26964824	    -33.32842343	    -45.00000000	      4.79848279	    -44.59974522	      7.37107150	     59.54926656	     28.69080184	      3.51167122	     15.37231657	     16.80519731	     36.53692131	     -3.50657064
